# Blender v2.80 (sub 75) OBJ File: ''
# www.blender.org
mtllib frame.mtl
o Frame
v -0.037931 -0.001499 0.050076
v -0.037931 0.001499 -0.050076
v -0.037931 -0.001499 -0.050076
v -0.037931 0.001499 0.050076
v 0.037931 0.001499 -0.050076
v 0.034931 0.001499 -0.047075
v 0.037931 0.001499 0.050076
v -0.034931 0.001499 -0.047075
v -0.034931 0.001499 0.047075
v 0.034931 0.001499 0.047075
v 0.037931 -0.001499 -0.050076
v 0.037931 -0.001499 0.050076
v 0.034931 -0.001499 0.047075
v -0.034931 -0.001499 0.047075
v -0.034931 -0.001499 -0.047075
v 0.034931 -0.001499 -0.047075
vn -1.0000 0.0000 0.0000
vn 0.0000 1.0000 0.0000
vn 1.0000 0.0000 0.0000
vn 0.0000 -1.0000 0.0000
vn 0.0000 0.0000 1.0000
vn 0.0000 0.0000 -1.0000
usemtl None
s off
f 1//1 2//1 3//1
f 2//1 1//1 4//1
f 5//2 6//2 7//2
f 5//2 8//2 6//2
f 8//2 2//2 9//2
f 2//2 8//2 5//2
f 10//2 7//2 6//2
f 9//2 7//2 10//2
f 9//2 4//2 7//2
f 4//2 9//2 2//2
f 7//3 11//3 5//3
f 11//3 7//3 12//3
f 12//4 13//4 11//4
f 12//4 14//4 13//4
f 14//4 1//4 15//4
f 1//4 14//4 12//4
f 16//4 11//4 13//4
f 15//4 11//4 16//4
f 15//4 3//4 11//4
f 3//4 15//4 1//4
f 1//5 7//5 4//5
f 7//5 1//5 12//5
f 11//6 2//6 5//6
f 2//6 11//6 3//6
f 9//3 15//3 8//3
f 15//3 9//3 14//3
f 13//1 6//1 16//1
f 6//1 13//1 10//1
f 15//5 6//5 8//5
f 6//5 15//5 16//5
f 13//6 9//6 10//6
f 9//6 13//6 14//6
